<?xml version="1.0" encoding="UTF-8"?>
<!DOCTYPE svg PUBLIC "-//W3C//DTD SVG 1.1//EN" "http://www.w3.org/Graphics/SVG/1.1/DTD/svg11.dtd">
<!-- Creator: CorelDRAW 2020 (64 Bit) -->
<svg xmlns="http://www.w3.org/2000/svg" xml:space="preserve" width="42.3332mm" height="42.3332mm" version="1.1" style="shape-rendering:geometricPrecision; text-rendering:geometricPrecision; image-rendering:optimizeQuality; fill-rule:evenodd; clip-rule:evenodd"
viewBox="0 0 4233.32 4233.32"
 xmlns:xlink="http://www.w3.org/1999/xlink"
 xmlns:xodm="http://www.corel.com/coreldraw/odm/2003">
 <defs>
  <style type="text/css">
   <![CDATA[
    .fil0 {fill:#F59B19}
   ]]>
  </style>
 </defs>
 <g id="Camada_x0020_1">
  <metadata id="CorelCorpID_0Corel-Layer"/>
  <g id="_2171347701808">
   <path class="fil0" d="M1135.7 1917.27c299.43,-516.59 595.29,-1026.98 894.16,-1543.87l0 517.13 86.79 -173.03 86.69 173.42 -0.01 -517.52c292.42,505.71 624.68,1031.73 894.66,1543.87l359.74 167.88 -786.51 -1363.38 -420.19 -721.77 -269.7 0 -1205.78 2085.15c30.02,-13.53 360.15,-167.59 360.15,-167.88z"/>
   <path class="fil0" d="M1713.32 1696.89l-904.81 419.78 891.61 403.79 91.98 204.33 324.54 720.13 424.27 -922.66 885.36 -405.62 -901.46 -411.54 -408.16 -910.47 -403.33 902.26zm-334.2 419.75l512.99 -236.09 224.54 -516.87 237.63 521.61 505.05 231.35 -505.92 223.86 -236.76 512.44 -244.6 -508.05 -492.93 -228.25z"/>
   <polygon class="fil0" points="1987.6,2036.19 1674.86,2036.19 1487.51,2116.64 1674.86,2209.68 1987.6,2209.62 "/>
   <polygon class="fil0" points="1876.48,1993.88 1987.6,1993.88 1987.6,1882.71 1910.99,1917.27 "/>
   <polygon class="fil0" points="1987.6,2251.98 1876.48,2251.98 1903.97,2312.91 1987.6,2350.62 "/>
   <polygon class="fil0" points="2029.95,1993.88 2203.34,1993.88 2203.34,1653.4 2116.65,1468.26 2029.91,1653.51 2029.95,1817.24 "/>
   <polygon class="fil0" points="2245.69,1882.71 2245.69,1993.88 2356.87,1993.88 2322.32,1917.27 "/>
   <polygon class="fil0" points="2356.87,2251.98 2245.69,2251.98 2245.69,2350.62 2329.35,2312.91 "/>
   <polygon class="fil0" points="2245.69,2209.62 2558.47,2209.62 2767.1,2116.64 2558.47,2036.19 2245.69,2036.19 "/>
   <polygon class="fil0" points="2203.4,2592.36 2203.34,2251.98 2029.95,2251.98 2029.95,2592.36 2116.65,2772.4 "/>
   <path class="fil0" d="M1725.96 3333.33c-15.02,-26.04 -584.79,-1018.14 -590.26,-1020.42l-360.15 -164.72 1206.7 2085.15 269.71 0 1205.77 -2085.15 -359.74 164.72c-298.87,516.82 -595.7,1030.16 -894.58,1546.98l-0.08 -504.58 -86.68 171.84 -86.74 -171.84 0 504.58 -303.95 -526.56z"/>
   <polygon class="fil0" points="1487.52,2857.07 1716.15,3254.55 1987.67,3404.06 1987.67,3254.55 1913.29,3096.55 "/>
   <polygon class="fil0" points="2320.05,3096.55 2245.66,3254.55 2245.69,3404.06 2515.48,3254.55 2747.44,2857.06 "/>
   <polygon class="fil0" points="3278.68,2542.23 3048.47,2939.77 4227.12,2257.31 4227.12,1987.55 3060.28,1313.23 3289.4,1709.85 3852.38,2036.19 3478.21,2036.14 3525.42,2116.64 3478.21,2209.63 3852.38,2209.63 "/>
   <polygon class="fil0" points="379.61,2036.2 943.17,1710.83 1173.09,1313.23 6.21,1988.53 6.21,2258.23 1184.8,2939.77 954.72,2542.23 379.61,2209.63 762.29,2209.63 708.49,2116.67 762.29,2036.2 "/>
   <polygon class="fil0" points="1707.72,988.56 1473.32,1395.83 1913.18,1149.45 1987.63,998.24 1987.62,841.87 "/>
   <polygon class="fil0" points="2245.69,998.24 2320.33,1149.45 2772.02,1395.83 2538.35,998.24 2245.66,841.77 "/>
  </g>
 </g>
</svg>
