<svg xmlns="http://www.w3.org/2000/svg" xml:space="preserve" width="591" height="129" version="1.1" style="shape-rendering:geometricPrecision; text-rendering:geometricPrecision; image-rendering:optimizeQuality; fill-rule:evenodd; clip-rule:evenodd"
viewBox="0 0 591 129"
 xmlns:xlink="http://www.w3.org/1999/xlink"
 xmlns:xodm="http://www.corel.com/coreldraw/odm/2003">
 <defs>
  <style type="text/css">
   <![CDATA[
    .fil1 {fill:#F59B19}
    .fil0 {fill:white;fill-rule:nonzero}
   ]]>
  </style>
 </defs>
 <g id="Camada_x0020_1">
  <metadata id="CorelCorpID_0Corel-Layer"/>
  <path class="fil0" d="M187 54c-1,-1 -3,-1 -4,-2 -2,0 -3,-1 -5,-1 -4,0 -7,1 -9,3 -3,2 -4,5 -4,9 0,4 1,7 4,9 3,2 6,3 10,3 2,0 4,0 6,-1 2,0 3,-1 4,-2l-1 9c-1,1 -3,1 -4,2 -2,0 -4,1 -6,1 -6,0 -11,-2 -15,-6 -4,-4 -7,-9 -7,-15 0,-6 2,-12 7,-15 4,-4 10,-6 15,-6 2,0 5,0 7,1 2,0 4,1 5,2l-1 8z"/>
  <path class="fil0" d="M221 52c-3,0 -6,1 -8,3 -2,2 -4,5 -4,9 0,4 1,7 4,9 2,2 5,3 8,3 3,0 6,-1 8,-3 2,-2 4,-5 4,-9 0,-4 -1,-7 -4,-9 -2,-2 -5,-3 -8,-3zm0 33c-6,0 -11,-2 -15,-6 -4,-4 -6,-9 -6,-15 0,-6 2,-11 6,-15 4,-4 9,-6 15,-6 6,0 11,2 15,6 4,4 7,9 7,15 0,6 -2,11 -6,15 -4,4 -9,6 -15,6z"/>
  <path class="fil0" d="M288 85l-16 -17c-1,-1 -2,-3 -4,-4 -1,-2 -3,-3 -4,-5l0 8 0 17 -10 0 0 -40 8 0 14 15c1,1 2,2 3,4 1,1 2,3 3,4l0 -8 0 -15 10 0 0 41 -5 0z"/>
  <path class="fil0" d="M319 85c-2,0 -5,0 -7,-1 -2,-1 -4,-1 -5,-3l-1 -9c4,3 8,5 13,5 4,0 6,-1 6,-4 0,-1 0,-2 -1,-3 -1,-1 -4,-2 -9,-4 -5,-2 -7,-5 -7,-11 0,-3 1,-6 4,-9 3,-2 6,-3 10,-3 2,0 4,0 6,1 2,0 3,1 4,2l-1 8c-1,-1 -2,-1 -4,-2 -2,-1 -3,-1 -4,-1 -2,0 -3,0 -4,1 -1,1 -1,1 -1,2 0,1 0,2 1,2 1,1 3,1 6,2 3,1 5,3 7,5 2,2 3,5 3,8 0,4 -1,7 -4,10 -3,2 -6,3 -11,3z"/>
  <polygon class="fil0" points="347,85 347,44 371,44 371,52 357,52 357,60 368,60 368,69 357,69 357,77 372,77 372,85 "/>
  <path class="fil0" d="M398 52l-4 0 0 9 4 0c1,0 3,0 4,-1 1,-1 1,-2 1,-3 0,-1 -1,-2 -2,-3 -1,-1 -2,-1 -4,-1zm10 32l-11 -16 -3 0 0 16 -9 0 0 -40 15 0c4,0 7,1 9,3 3,2 4,5 4,9 0,2 -1,4 -2,6 -1,2 -3,3 -4,4l13 18 -11 0z"/>
  <path class="fil0" d="M448 85l-8 0 -15 -40 10 0 6 18c0,1 1,3 1,4 0,1 1,3 1,5 0,-2 1,-3 1,-4 0,-1 1,-3 2,-5l6 -18 9 0 -15 40z"/>
  <path class="fil0" d="M535 52l-4 0 0 9 4 0c1,0 3,0 4,-1 1,-1 1,-2 1,-3 0,-1 -1,-2 -2,-3 -1,-1 -2,-1 -4,-1zm10 32l-11 -16 -3 0 0 16 -9 0 0 -40 15 0c4,0 7,1 9,3 3,2 4,5 4,9 0,2 -1,4 -2,6 -1,2 -3,3 -4,4l13 18 -11 0z"/>
  <polygon class="fil0" points="566,85 566,44 589,44 589,52 576,52 576,60 587,60 587,69 576,69 576,77 591,77 591,85 "/>
  <path class="fil0" d="M478 79l4 -12 5 0 0 12 -9 0zm5 -17l4 -10 0 10 -4 0zm9 0l0 -10 3 10 -3 0zm0 17l0 -12 5 0 4 12 -9 0zm2 -35l-10 0 -15 42 40 0 -15 -42z"/>
  <path class="fil0" d="M480 99c-1,-1 -2,-1 -4,-1 -3,0 -5,2 -5,5 0,2 1,5 5,5 1,0 2,0 3,-1l0 -3 -4 0 0 -2 6 0 0 6c-1,2 -3,3 -6,3 -6,0 -8,-4 -8,-8 0,-4 3,-8 8,-8 2,0 4,1 6,2l-2 2z"/>
  <path class="fil0" d="M491 98l0 5 4 0c2,0 3,-1 3,-2 0,-1 -1,-2 -3,-2l-4 0zm10 12l-3 0 -4 -5 -3 0 0 5 -3 0 0 -15c2,0 5,0 7,0 3,0 5,2 5,5 0,2 -1,4 -4,5l4 5 0 0z"/>
  <path class="fil0" d="M517 91l-3 0 -2 3 0 0 2 0 2 -3 0 0zm-1 14l-3 -6 -3 6 5 0zm1 3l-8 0 -1 3 -3 0 7 -15 3 0 7 15 -3 0 -1 -3z"/>
  <polygon class="fil0" points="527,110 527,95 538,95 538,98 530,98 530,102 537,102 537,104 530,104 530,110 "/>
  <polygon class="fil0" points="544,95 547,95 547,110 544,110 "/>
  <path class="fil0" d="M567 108c-2,2 -3,2 -6,2 -6,0 -8,-4 -8,-8 0,-4 3,-8 8,-8 2,0 4,1 5,2l-2 2c-1,-1 -2,-1 -4,-1 -4,0 -5,3 -5,5 0,2 1,5 5,5 1,0 3,-1 4,-2l2 2z"/>
  <path class="fil0" d="M579 98l-3 6 6 0 -3 -6zm4 9l-8 0 -1 3 -3 0 7 -15 3 0 7 15 -3 0 -1 -3z"/>
  <path class="fil1" d="M34 58c9,-16 18,-31 27,-47l0 16 3 -5 3 5 0 -16c9,15 19,31 27,47l11 5 -24 -42 -13 -22 -8 0 -37 64c1,0 11,-5 11,-5z"/>
  <path class="fil1" d="M52 52l-28 13 27 12 3 6 10 22 13 -28 27 -12 -27 -13 -12 -28 -12 28zm-10 13l16 -7 7 -16 7 16 15 7 -15 7 -7 16 -7 -15 -15 -7z"/>
  <polygon class="fil1" points="60,62 51,62 45,65 51,67 60,67 "/>
  <polygon class="fil1" points="57,61 60,61 60,57 58,58 "/>
  <polygon class="fil1" points="60,69 57,69 58,70 60,72 "/>
  <polygon class="fil1" points="62,61 67,61 67,50 64,45 62,50 62,55 "/>
  <polygon class="fil1" points="68,57 68,61 72,61 71,58 "/>
  <polygon class="fil1" points="72,69 68,69 68,72 71,70 "/>
  <polygon class="fil1" points="68,67 78,67 84,65 78,62 68,62 "/>
  <polygon class="fil1" points="67,79 67,69 62,69 62,79 64,84 "/>
  <path class="fil1" d="M52 102c0,-1 -18,-31 -18,-31l-11 -5 37 64 8 0 37 -64 -11 5c-9,16 -18,31 -27,47l0 -15 -3 5 -3 -5 0 15 -9 -16z"/>
  <polygon class="fil1" points="45,87 52,99 60,104 60,99 58,94 "/>
  <polygon class="fil1" points="71,94 68,99 68,104 76,99 84,87 "/>
  <polygon class="fil1" points="100,77 93,90 129,69 129,61 93,40 100,52 117,62 106,62 107,65 106,67 117,67 "/>
  <polygon class="fil1" points="11,62 29,52 36,40 0,61 0,69 36,90 29,77 11,67 23,67 21,65 23,62 "/>
  <polygon class="fil1" points="52,30 45,43 58,35 60,30 60,26 "/>
  <polygon class="fil1" points="68,30 71,35 84,43 77,30 68,26 "/>
 </g>
</svg>
